<mxfile host="app.diagrams.net" modified="2021-05-03T02:07:23.343Z" agent="5.0 (Windows NT 10.0; Win64; x64) AppleWebKit/537.36 (KHTML, like Gecko) Chrome/80.0.3987.116 Safari/537.36" etag="KH0gdOqOdhtIpzwDttbT" version="14.6.6" type="github">
  <diagram id="8FF5lJjAhrknQarmff5p" name="Page-1">
    <mxGraphModel dx="731" dy="403" grid="1" gridSize="10" guides="1" tooltips="1" connect="1" arrows="1" fold="1" page="1" pageScale="1" pageWidth="827" pageHeight="1169" math="0" shadow="0">
      <root>
        <mxCell id="0" />
        <mxCell id="1" parent="0" />
        <mxCell id="DH7vO2b5iAMv9_VvQ1jn-1" value="AvsractBootstrap" style="rounded=1;whiteSpace=wrap;html=1;" vertex="1" parent="1">
          <mxGeometry x="245" y="180" width="175" height="30" as="geometry" />
        </mxCell>
        <mxCell id="DH7vO2b5iAMv9_VvQ1jn-3" value="bind" style="text;html=1;strokeColor=none;fillColor=none;align=center;verticalAlign=middle;whiteSpace=wrap;rounded=0;" vertex="1" parent="1">
          <mxGeometry x="260" y="250" width="40" height="20" as="geometry" />
        </mxCell>
        <mxCell id="DH7vO2b5iAMv9_VvQ1jn-19" style="edgeStyle=orthogonalEdgeStyle;rounded=0;orthogonalLoop=1;jettySize=auto;html=1;entryX=0.5;entryY=1;entryDx=0;entryDy=0;" edge="1" parent="1" source="DH7vO2b5iAMv9_VvQ1jn-4" target="DH7vO2b5iAMv9_VvQ1jn-11">
          <mxGeometry relative="1" as="geometry">
            <Array as="points">
              <mxPoint x="380" y="286" />
              <mxPoint x="380" y="286" />
            </Array>
          </mxGeometry>
        </mxCell>
        <mxCell id="DH7vO2b5iAMv9_VvQ1jn-4" value="" style="rounded=0;whiteSpace=wrap;html=1;" vertex="1" parent="1">
          <mxGeometry x="300" y="240" width="20" height="190" as="geometry" />
        </mxCell>
        <mxCell id="DH7vO2b5iAMv9_VvQ1jn-23" style="edgeStyle=orthogonalEdgeStyle;rounded=0;orthogonalLoop=1;jettySize=auto;html=1;entryX=0.5;entryY=1;entryDx=0;entryDy=0;" edge="1" parent="1" source="DH7vO2b5iAMv9_VvQ1jn-5" target="DH7vO2b5iAMv9_VvQ1jn-18">
          <mxGeometry relative="1" as="geometry">
            <Array as="points">
              <mxPoint x="460" y="336" />
              <mxPoint x="460" y="336" />
            </Array>
          </mxGeometry>
        </mxCell>
        <mxCell id="DH7vO2b5iAMv9_VvQ1jn-36" style="edgeStyle=orthogonalEdgeStyle;rounded=0;orthogonalLoop=1;jettySize=auto;html=1;" edge="1" parent="1" source="DH7vO2b5iAMv9_VvQ1jn-5" target="DH7vO2b5iAMv9_VvQ1jn-34">
          <mxGeometry relative="1" as="geometry">
            <Array as="points">
              <mxPoint x="540" y="384" />
              <mxPoint x="540" y="384" />
            </Array>
          </mxGeometry>
        </mxCell>
        <mxCell id="DH7vO2b5iAMv9_VvQ1jn-5" value="" style="rounded=1;whiteSpace=wrap;html=1;" vertex="1" parent="1">
          <mxGeometry x="310" y="260" width="20" height="140" as="geometry" />
        </mxCell>
        <mxCell id="DH7vO2b5iAMv9_VvQ1jn-6" value="initAndRegister" style="text;html=1;strokeColor=none;fillColor=none;align=center;verticalAlign=middle;whiteSpace=wrap;rounded=0;" vertex="1" parent="1">
          <mxGeometry x="340" y="230" width="40" height="20" as="geometry" />
        </mxCell>
        <mxCell id="DH7vO2b5iAMv9_VvQ1jn-8" value="ReflectiveChannelFactory" style="rounded=1;whiteSpace=wrap;html=1;" vertex="1" parent="1">
          <mxGeometry x="470" y="180" width="175" height="30" as="geometry" />
        </mxCell>
        <mxCell id="DH7vO2b5iAMv9_VvQ1jn-32" style="edgeStyle=orthogonalEdgeStyle;rounded=0;orthogonalLoop=1;jettySize=auto;html=1;entryX=0.665;entryY=0.951;entryDx=0;entryDy=0;entryPerimeter=0;" edge="1" parent="1" source="DH7vO2b5iAMv9_VvQ1jn-11" target="DH7vO2b5iAMv9_VvQ1jn-26">
          <mxGeometry relative="1" as="geometry">
            <Array as="points">
              <mxPoint x="610" y="274" />
              <mxPoint x="610" y="274" />
            </Array>
          </mxGeometry>
        </mxCell>
        <mxCell id="DH7vO2b5iAMv9_VvQ1jn-11" value="" style="rounded=1;whiteSpace=wrap;html=1;direction=south;" vertex="1" parent="1">
          <mxGeometry x="550" y="270" width="15" height="32.5" as="geometry" />
        </mxCell>
        <mxCell id="DH7vO2b5iAMv9_VvQ1jn-17" value="ServerBpptstra[" style="rounded=1;whiteSpace=wrap;html=1;" vertex="1" parent="1">
          <mxGeometry x="890" y="180" width="175" height="30" as="geometry" />
        </mxCell>
        <mxCell id="DH7vO2b5iAMv9_VvQ1jn-18" value="" style="rounded=1;whiteSpace=wrap;html=1;direction=south;" vertex="1" parent="1">
          <mxGeometry x="970" y="320" width="15" height="32.5" as="geometry" />
        </mxCell>
        <mxCell id="DH7vO2b5iAMv9_VvQ1jn-20" value="newChannel()" style="text;html=1;strokeColor=none;fillColor=none;align=center;verticalAlign=middle;whiteSpace=wrap;rounded=0;" vertex="1" parent="1">
          <mxGeometry x="430" y="260" width="40" height="20" as="geometry" />
        </mxCell>
        <mxCell id="DH7vO2b5iAMv9_VvQ1jn-24" value="init()" style="text;html=1;strokeColor=none;fillColor=none;align=center;verticalAlign=middle;whiteSpace=wrap;rounded=0;" vertex="1" parent="1">
          <mxGeometry x="460" y="310" width="40" height="20" as="geometry" />
        </mxCell>
        <mxCell id="DH7vO2b5iAMv9_VvQ1jn-25" value="NioServerSocketChannel" style="rounded=1;whiteSpace=wrap;html=1;" vertex="1" parent="1">
          <mxGeometry x="690" y="180" width="175" height="30" as="geometry" />
        </mxCell>
        <mxCell id="DH7vO2b5iAMv9_VvQ1jn-26" value="" style="rounded=1;whiteSpace=wrap;html=1;direction=south;" vertex="1" parent="1">
          <mxGeometry x="760" y="223.75" width="30" height="76.25" as="geometry" />
        </mxCell>
        <mxCell id="DH7vO2b5iAMv9_VvQ1jn-28" value="" style="rounded=1;whiteSpace=wrap;html=1;direction=south;" vertex="1" parent="1">
          <mxGeometry x="780" y="230" width="20" height="23.12" as="geometry" />
        </mxCell>
        <mxCell id="DH7vO2b5iAMv9_VvQ1jn-29" value="newSocket()" style="text;html=1;strokeColor=none;fillColor=none;align=center;verticalAlign=middle;whiteSpace=wrap;rounded=0;" vertex="1" parent="1">
          <mxGeometry x="810" y="230" width="40" height="20" as="geometry" />
        </mxCell>
        <mxCell id="DH7vO2b5iAMv9_VvQ1jn-30" value="ch.configureBlocking(false)" style="text;html=1;strokeColor=none;fillColor=none;align=center;verticalAlign=middle;whiteSpace=wrap;rounded=0;" vertex="1" parent="1">
          <mxGeometry x="860" y="261.56" width="40" height="20" as="geometry" />
        </mxCell>
        <mxCell id="DH7vO2b5iAMv9_VvQ1jn-31" value="" style="rounded=1;whiteSpace=wrap;html=1;direction=south;arcSize=0;" vertex="1" parent="1">
          <mxGeometry x="780" y="260" width="20" height="23.12" as="geometry" />
        </mxCell>
        <mxCell id="DH7vO2b5iAMv9_VvQ1jn-33" value="AbstractChanner" style="rounded=1;whiteSpace=wrap;html=1;" vertex="1" parent="1">
          <mxGeometry x="1110" y="180" width="175" height="30" as="geometry" />
        </mxCell>
        <mxCell id="DH7vO2b5iAMv9_VvQ1jn-34" value="" style="rounded=1;whiteSpace=wrap;html=1;direction=south;" vertex="1" parent="1">
          <mxGeometry x="1190" y="367.5" width="15" height="32.5" as="geometry" />
        </mxCell>
        <mxCell id="DH7vO2b5iAMv9_VvQ1jn-37" value="register()" style="text;html=1;strokeColor=none;fillColor=none;align=center;verticalAlign=middle;whiteSpace=wrap;rounded=0;" vertex="1" parent="1">
          <mxGeometry x="730" y="367.5" width="60" height="18" as="geometry" />
        </mxCell>
        <mxCell id="DH7vO2b5iAMv9_VvQ1jn-38" value="NioServerSocketChannel" style="rounded=1;whiteSpace=wrap;html=1;" vertex="1" parent="1">
          <mxGeometry x="1340" y="180" width="175" height="30" as="geometry" />
        </mxCell>
        <mxCell id="DH7vO2b5iAMv9_VvQ1jn-39" value="" style="rounded=1;whiteSpace=wrap;html=1;direction=south;arcSize=0;" vertex="1" parent="1">
          <mxGeometry x="1420" y="420" width="15" height="32.5" as="geometry" />
        </mxCell>
        <mxCell id="DH7vO2b5iAMv9_VvQ1jn-40" value="" style="endArrow=classic;html=1;entryX=0.5;entryY=1;entryDx=0;entryDy=0;exitX=0.962;exitY=0.936;exitDx=0;exitDy=0;exitPerimeter=0;" edge="1" parent="1" source="DH7vO2b5iAMv9_VvQ1jn-4" target="DH7vO2b5iAMv9_VvQ1jn-39">
          <mxGeometry width="50" height="50" relative="1" as="geometry">
            <mxPoint x="380" y="460" as="sourcePoint" />
            <mxPoint x="430" y="410" as="targetPoint" />
            <Array as="points">
              <mxPoint x="400" y="420" />
            </Array>
          </mxGeometry>
        </mxCell>
        <mxCell id="DH7vO2b5iAMv9_VvQ1jn-41" value="java" style="text;html=1;strokeColor=none;fillColor=none;align=center;verticalAlign=middle;whiteSpace=wrap;rounded=0;" vertex="1" parent="1">
          <mxGeometry x="1435" y="410" width="40" height="26" as="geometry" />
        </mxCell>
        <mxCell id="DH7vO2b5iAMv9_VvQ1jn-42" value="doBind()" style="text;html=1;strokeColor=none;fillColor=none;align=center;verticalAlign=middle;whiteSpace=wrap;rounded=0;" vertex="1" parent="1">
          <mxGeometry x="758" y="410" width="40" height="20" as="geometry" />
        </mxCell>
      </root>
    </mxGraphModel>
  </diagram>
</mxfile>
